<?xml version="1.0" encoding="iso-8859-1"?>
<!-- Generator: Adobe Illustrator 19.0.0, SVG Export Plug-In . SVG Version: 6.00 Build 0)  -->
<svg version="1.1" id="Capa_1" xmlns="http://www.w3.org/2000/svg" xmlns:xlink="http://www.w3.org/1999/xlink" x="0px" y="0px"
	 viewBox="0 0 512 512" style="enable-background:new 0 0 512 512;" xml:space="preserve">
<g>
	<g>
		<path d="M459.943,314.321V127.83L238.534,0L17.126,127.83v255.66l221.408,127.83l58.9-34.006
			C318.354,498.701,347.512,512,379.721,512c63.495,0,115.153-51.658,115.153-115.153
			C494.874,364.514,481.474,335.257,459.943,314.321z M238.534,34.686l176.349,101.815l-73.154,42.236L165.38,76.922L238.534,34.686
			z M223.514,467.961L47.166,366.146V162.517l176.348,101.815V467.961z M62.186,136.501l73.154-42.236L311.689,196.08
			l-73.155,42.236L62.186,136.501z M253.554,467.961v-203.63l176.348-101.815v130.701c-15.176-7.379-32.203-11.522-50.181-11.522
			c-63.495,0-115.153,51.658-115.153,115.153c0,20.421,5.35,39.614,14.712,56.261L253.554,467.961z M379.721,481.96
			c-46.931,0-85.113-38.182-85.113-85.113c0-46.931,38.182-85.113,85.113-85.113c46.931,0,85.113,38.182,85.113,85.113
			C464.834,443.778,426.653,481.96,379.721,481.96z"/>
	</g>
</g>
<g>
	<g>
		<polygon points="415.287,353.212 366.104,402.667 344.073,380.859 322.94,402.207 366.27,445.1 436.587,374.394 		"/>
	</g>
</g>
<g>
</g>
<g>
</g>
<g>
</g>
<g>
</g>
<g>
</g>
<g>
</g>
<g>
</g>
<g>
</g>
<g>
</g>
<g>
</g>
<g>
</g>
<g>
</g>
<g>
</g>
<g>
</g>
<g>
</g>
</svg>
