<?xml version="1.0" encoding="iso-8859-1"?>
<!-- Generator: Adobe Illustrator 18.1.1, SVG Export Plug-In . SVG Version: 6.00 Build 0)  -->
<svg version="1.1" id="Capa_1" xmlns="http://www.w3.org/2000/svg" xmlns:xlink="http://www.w3.org/1999/xlink" x="0px" y="0px"
	 viewBox="0 0 370.477 370.477" style="enable-background:new 0 0 370.477 370.477;" xml:space="preserve">
<g>
	<g>
		<path style="" d="M258.7,103.445c-1.426,0-2.858,0.352-4.129,1.008l-145.902,75.57
			c-3.401,1.754-5.322,5.478-4.785,9.267c0.537,3.801,3.413,6.844,7.154,7.584l60.188,11.94l16.463,56.274
			c1.074,3.658,4.35,6.265,8.163,6.48h0.489c3.652,0,6.922-2.184,8.336-5.573l62.354-150.067c1.444-3.479,0.549-7.542-2.226-10.096
			C263.139,104.292,260.967,103.445,258.7,103.445z"/>
		<path style="" d="M352.183,104.99C321.4,41.216,255.865,0.009,185.236,0.009C83.095,0.009,0,83.104,0,185.233
			c0,102.141,83.095,185.235,185.236,185.235s185.241-83.101,185.241-185.235C370.471,157.146,364.319,130.152,352.183,104.99z
			 M278.068,120.498l-62.36,150.085c-3.282,7.846-10.878,12.912-19.357,12.912l-1.152-0.024c-8.849-0.495-16.463-6.54-18.951-15.036
			l-14.434-49.328l-53.081-10.537c-8.712-1.712-15.412-8.795-16.66-17.614c-1.247-8.801,3.222-17.459,11.116-21.54l145.89-75.564
			c7.632-3.956,17.465-2.643,23.814,3.18C279.345,102.979,281.415,112.407,278.068,120.498z"/>
	</g>
</g>
<g>
</g>
<g>
</g>
<g>
</g>
<g>
</g>
<g>
</g>
<g>
</g>
<g>
</g>
<g>
</g>
<g>
</g>
<g>
</g>
<g>
</g>
<g>
</g>
<g>
</g>
<g>
</g>
<g>
</g>
</svg>
